<svg xmlns="http://www.w3.org/2000/svg" version="1.1" viewBox="0 0 200 200"><rect width="200" height="200" fill="url('#gradient')"></rect><defs><linearGradient id="gradient" gradientTransform="rotate(30 0.5 0.5)"><stop offset="0%" stop-color="#209e9e"></stop><stop offset="100%" stop-color="#c664ac"></stop></linearGradient></defs><g><g fill="#ffffff" transform="matrix(4.417725674091442,0,0,4.417725674091442,8.132500078753338,131.40940499910576)" stroke="#137d72" stroke-width="0.25"><path d="M9.98 0L9.15-2.66L4.45-2.66L3.63 0L-0.03 0L5.19-14.22L8.41-14.22L13.66 0L9.98 0ZM6.80-10.23L5.27-5.30L8.33-5.30L6.80-10.23ZM14.70-14.22L19.20-14.22L22.37-4.33L25.54-14.22L30.05-14.22L30.05 0L26.61 0L26.61-3.32L26.94-10.12L23.51 0L21.24 0L17.79-10.13L18.13-3.32L18.13 0L14.70 0L14.70-14.22ZM35.65-14.22L35.65-2.64L41.62-2.64L41.62 0L32.23 0L32.23-14.22L35.65-14.22Z"></path></g></g></svg>